<svg width="700" height="700" viewBox="0 0 700 700" fill="none" xmlns="http://www.w3.org/2000/svg">
<path fill-rule="evenodd" clip-rule="evenodd" d="M154.403 156.611C152.716 164.559 155.05 183.584 160.295 204.662C163.223 216.424 168.945 234.337 173.437 245.789V245.789C173.598 246.201 174.16 246.253 174.394 245.878L176.243 242.914V242.914C177.745 240.504 177.903 237.491 176.66 234.937L175.562 232.68C149.035 178.197 162.44 152.778 208.871 169.519C215.752 172 218.096 173.007 227.649 177.586C232.708 180.012 237.02 181.893 237.228 181.767C237.438 181.643 238.445 181.008 239.465 180.36V180.36C240.238 179.868 240.128 178.706 239.276 178.368L238.843 178.197C215.226 168.824 180.504 158.888 161.828 156.156C154.411 155.071 154.733 155.052 154.403 156.611ZM336.143 159.47C251.898 165.812 182.511 221.709 162.906 299.033C161.546 304.392 159.922 313.577 158.881 321.774C158.114 327.82 157.931 349.242 158.589 355.817C159.063 360.556 160.064 368.326 160.295 369.054C160.384 369.339 161.478 369.105 163.916 368.275C194.52 357.868 238.299 387.753 295.743 458.262C299.245 462.562 302.106 464.368 312.735 468.988C337.97 479.957 368.452 479.526 396.93 467.798V467.798C399.55 466.718 401.856 464.997 403.635 462.791L405.491 460.49C428.867 431.508 452.952 406.53 472.482 391.017C499.546 369.521 521.39 362.103 539.455 368.272C540.82 368.737 541.935 369.003 541.935 368.861C541.935 368.72 542.23 366.459 542.593 363.836C547.979 324.7 539.856 285.355 519.356 251.295C482.375 189.854 410.574 153.869 336.143 159.47ZM540.225 159.605C521.623 162.151 500.057 169.176 476.163 180.474L470.04 183.369C469.32 183.71 469.258 184.711 469.931 185.138V185.138V185.138C470.884 185.743 472.094 185.769 473.073 185.206L476.231 183.391C532.989 150.769 555.238 173.813 531.155 240.277L529.295 245.41C528.866 246.597 528.957 247.909 529.546 249.025V249.025C530.761 251.318 530.707 251.359 531.927 247.103C532.506 245.08 534.235 239.192 535.768 234.017C545.006 202.839 549.966 173.049 547.972 160.716V160.716C547.822 159.783 547.008 159.102 546.063 159.118L545.592 159.126C544.428 159.145 542.012 159.362 540.225 159.605ZM180.474 174.468C168.46 177.068 169.145 193.991 182.487 224.245C185.232 230.47 185.052 230.286 186.478 228.293C193.813 218.043 209.228 202.582 222.044 192.622C224.772 190.501 227.047 188.66 227.098 188.529C227.393 187.784 208.57 179.658 200.646 177.112C193.393 174.779 184.448 173.609 180.474 174.468ZM514.635 178.668C506.954 179.58 494.344 184.508 481.789 191.506V191.506C480.924 191.988 480.826 193.194 481.602 193.809L482.986 194.908C495.92 205.173 516.92 227.687 521.442 236.136C521.936 237.055 521.918 237.087 523.598 232.096C535.915 195.522 532.726 176.522 514.635 178.668ZM363.018 181.685C463.395 189.441 524.769 275.683 485.271 353.472C447.011 428.822 331.471 451.734 256.94 398.75C184.35 347.147 188.255 252.534 264.936 204.949C292.471 187.866 329.457 179.091 363.018 181.685ZM267.717 261.954C249.76 264.803 242.554 285.761 255.197 298.361C268.83 311.946 291.837 302.479 291.837 283.285C291.837 270.536 279.941 260.015 267.717 261.954ZM419.795 261.929C401.298 265.053 394.096 285.731 407.032 298.573C420.45 311.892 443.424 302.374 443.52 283.456C443.585 270.806 431.602 259.934 419.795 261.929ZM301.287 312.713C296.105 314.3 297.477 319.868 304.978 327.701C316.948 340.203 332.762 341.894 345.642 332.049L345.795 331.932C346.662 331.269 347.87 331.284 348.721 331.968V331.968C364.198 344.411 382.259 346.218 395.587 336.658C403.734 330.817 406.829 325.551 403.959 322.42C401.502 319.737 398.893 320.352 395.054 324.517C383.145 337.432 369.222 336.537 351.032 321.687C347.847 319.086 346.588 319.244 342.137 322.796C329.443 332.93 317.448 330.589 307.645 316.059C305.574 312.993 303.66 311.985 301.287 312.713ZM306.549 471.636C306.549 471.702 308.051 473.707 309.885 476.089C311.721 478.471 314.144 481.682 315.273 483.226C316.404 484.769 318.101 487.025 319.048 488.238C324.088 494.702 341.833 519.825 348.331 529.695C349.907 532.091 351.309 534.053 351.446 534.058C351.58 534.063 353.145 531.872 354.921 529.191C359.987 521.538 367.624 510.601 376.028 498.958C378.74 495.199 385.549 486.047 391.373 478.333C392.709 476.564 393.755 475.067 393.696 475.009C393.638 474.95 391.673 475.529 389.329 476.294C362.883 484.934 333.984 483.814 310.397 473.238C308.282 472.288 306.549 471.567 306.549 471.636Z" fill="white"/>
<path fill-rule="evenodd" clip-rule="evenodd" d="M0.343018 350V500C0.343018 610.457 89.8861 700 200.343 700H350.172H500C610.457 700 700 610.457 700 500V350V200C700 89.5431 610.457 0 500 0H350.172H200.343C89.8861 0 0.343018 89.5431 0.343018 200V350ZM163.025 156.065C176.139 157.931 193.242 162.295 213.318 168.903C225.794 173.008 241.941 178.911 241.712 179.284C241.626 179.42 240.48 180.184 239.164 180.978V180.978C237.674 181.879 235.827 181.957 234.267 181.183L229.493 178.815C203.609 165.977 185.603 161.893 174.487 166.339C157.903 172.972 158.471 196.6 176.092 233.032L177.269 235.465C178.35 237.701 178.203 240.338 176.878 242.44V242.44C175.707 244.3 174.524 246.181 174.249 246.62C173.586 247.679 173.92 248.413 170.042 237.417C160.382 210.026 155.022 187.535 153.965 169.962C153.65 164.708 153.687 162.181 154.159 157.103L154.18 156.885C154.279 155.819 155.234 155.043 156.298 155.164V155.164C157.364 155.285 160.391 155.691 163.025 156.065ZM366.401 159.108C477.582 167.914 558.273 262.316 542.782 365.461C542.139 369.735 542.47 369.47 539.103 368.396C522.378 363.058 503.03 368.858 478.956 386.428C457.49 402.094 430.447 429.679 403.578 463.318V463.318C401.84 465.493 399.558 467.171 396.963 468.18L396.588 468.326C368.506 479.257 342.477 480.237 317.824 471.292C308.206 467.801 299.614 463.27 297.18 460.407C296.349 459.427 292.98 455.394 289.695 451.442C235.277 385.966 193.464 358.493 163.625 368.61L160.842 369.552C160.456 369.683 160.042 369.449 159.955 369.051V369.051C157.493 357.84 156.867 335.783 158.59 321.034C170.028 223.23 262.846 150.906 366.401 159.108ZM548.177 159.604C549.815 165.218 548.436 180.943 544.638 199.964C542.209 212.133 537.008 232.041 533.015 244.452C532.047 247.464 531.149 250.295 531.02 250.747C530.805 251.499 530.68 251.391 529.515 249.434V249.434C528.712 248.086 528.565 246.446 529.117 244.977L530.255 241.943C546.67 198.224 543.098 171.288 520.586 169.019C510.302 167.983 494.055 173.409 475.624 184.042C473.261 185.405 471.233 186.366 471.005 186.23C470.783 186.095 470.011 185.561 469.29 185.043V185.043C468.694 184.614 468.766 183.705 469.423 183.376L471.345 182.411C496.589 169.743 525.261 160.512 545.186 158.639C547.559 158.415 547.857 158.512 548.177 159.604ZM193.646 174.944C198.135 175.992 205.984 178.532 210.924 180.534C215.562 182.415 227.866 188.193 227.84 188.477C227.829 188.592 226.404 189.709 224.674 190.958C211.923 200.177 195.15 216.823 185.764 229.57V229.57C185.48 229.958 184.885 229.902 184.678 229.468L182.749 225.439C172.372 203.747 168.865 183.645 174.391 177.527C177.842 173.709 184.513 172.814 193.646 174.944ZM522.84 178.927C531.296 181.538 533.365 194.317 528.712 215.201C527.362 221.261 522.84 236.059 522.09 236.871C521.944 237.029 520.691 235.568 519.307 233.622C509.714 220.148 496.148 205.793 483.173 195.386C479.138 192.15 478.882 192.798 485.655 189.114C501.559 180.464 515.475 176.652 522.84 178.927ZM343.13 181.797C343.051 181.865 341.061 182.019 338.709 182.14C288.388 184.721 239.958 213.336 218.456 253.192C176.449 331.058 237.982 419.601 339.223 426.97C405.223 431.774 468.337 396.898 489.233 344.076C519.512 267.538 457.282 188.184 362.152 182.026C356.981 181.69 343.436 181.528 343.13 181.797ZM276.183 262.295C292.332 267.043 297.465 286.794 285.647 298.716C272.367 312.114 249.548 303.086 248.81 284.14C248.238 269.439 262.302 258.212 276.183 262.295ZM425.238 261.749C442.909 264.616 449.986 286.004 437.414 298.547C423.624 312.305 400.486 302.853 400.468 283.456C400.456 269.896 412.172 259.628 425.238 261.749ZM305.401 312.942C305.872 313.25 307.087 314.762 308.1 316.302C317.23 330.166 330.358 332.472 342.389 322.327C346.724 318.673 348.196 318.651 352.107 322.179C367.605 336.158 383.546 336.847 395.164 324.041C398.788 320.047 401.531 319.426 403.939 322.054C406.432 324.776 405.874 327.22 401.775 331.527C387.662 346.357 368.686 347.03 350.194 333.356L349.353 332.734C348.09 331.8 346.37 331.786 345.091 332.698V332.698C334.283 340.41 321.37 340.646 311.042 333.319C305.736 329.557 299.227 322.205 297.944 318.523C296.504 314.393 301.689 310.511 305.401 312.942ZM183.383 376.553C215.763 382.319 265.869 430.377 323.349 510.802C328.863 518.518 329.898 520.039 329.62 520.039C329.495 520.039 327.448 518.604 325.069 516.852C261.326 469.84 198.655 442.668 151.167 441.451L146.953 441.343C144.765 441.287 142.774 440.063 141.736 438.135V438.135C126.548 409.917 135.305 388.129 165.949 377.902C172.876 375.592 176.437 375.316 183.383 376.553ZM529.97 376.015C541.931 377.485 558.334 387.046 564.048 395.878C571.529 407.444 570.255 423.652 560.563 440.19V440.19C560.175 440.852 559.472 441.267 558.704 441.286L552.05 441.451C504.465 442.634 441.478 469.999 376.887 517.547C375.021 518.919 373.431 519.976 373.35 519.895C372.827 519.374 397.561 486.042 410.053 470.437C459.21 409.019 498.3 377.137 526.206 375.704C526.682 375.68 528.376 375.819 529.97 376.015ZM308.184 471.926C331.537 483.637 363.506 484.825 391.856 475.034C395.089 473.919 395.286 474.049 393.55 476.147C391.862 478.188 384.617 487.765 380.795 493.01C369.978 507.852 365.19 514.654 355.504 528.934C350.98 535.605 351.521 535.255 349.846 532.609C342.564 521.099 321.309 491.403 308.768 475.219C304.757 470.041 304.789 470.223 308.184 471.926Z" fill="#0B1C34"/>
<path fill-rule="evenodd" clip-rule="evenodd" d="M348.374 158.66C349.834 158.725 352.219 158.725 353.679 158.66C355.136 158.597 353.943 158.545 351.027 158.545C348.11 158.545 346.917 158.597 348.374 158.66ZM339.141 158.995C339.663 159.073 340.433 159.072 340.853 158.989C341.273 158.909 340.848 158.844 339.908 158.848C338.966 158.849 338.622 158.916 339.141 158.995ZM361.547 158.991C361.97 159.072 362.663 159.072 363.087 158.991C363.51 158.909 363.164 158.842 362.317 158.842C361.47 158.842 361.123 158.909 361.547 158.991ZM366.851 159.327C367.18 159.413 367.719 159.413 368.048 159.327C368.377 159.241 368.107 159.17 367.449 159.17C366.79 159.17 366.52 159.241 366.851 159.327ZM153.724 164.736C153.725 165.865 153.788 166.285 153.865 165.671C153.94 165.057 153.939 164.133 153.862 163.618C153.783 163.104 153.722 163.608 153.724 164.736ZM548.522 164.052C548.525 164.805 548.595 165.072 548.678 164.647C548.76 164.222 548.756 163.606 548.671 163.279C548.585 162.951 548.518 163.3 548.522 164.052ZM548.534 172.263C548.536 173.205 548.602 173.548 548.681 173.028C548.76 172.508 548.758 171.738 548.678 171.318C548.595 170.896 548.531 171.322 548.534 172.263ZM181.932 174.045C182.357 174.127 182.973 174.123 183.3 174.038C183.627 173.952 183.279 173.885 182.527 173.889C181.774 173.892 181.506 173.962 181.932 174.045ZM186.034 174.045C186.457 174.125 187.15 174.125 187.574 174.045C187.997 173.962 187.651 173.896 186.804 173.896C185.957 173.896 185.61 173.962 186.034 174.045ZM532.698 173.91C532.698 173.969 533.199 174.468 533.81 175.021L534.923 176.027L533.916 174.914C532.98 173.878 532.698 173.646 532.698 173.91ZM525.856 180.409C525.856 180.469 526.356 180.969 526.967 181.522L528.08 182.527L527.074 181.416C526.138 180.378 525.856 180.145 525.856 180.409ZM350.091 181.575C350.611 181.654 351.381 181.652 351.801 181.57C352.223 181.489 351.796 181.424 350.856 181.428C349.914 181.43 349.57 181.496 350.091 181.575ZM340.853 181.918C341.372 181.997 342.143 181.993 342.563 181.913C342.984 181.832 342.559 181.767 341.618 181.769C340.678 181.773 340.333 181.839 340.853 181.918ZM359.671 181.918C360.19 181.997 360.96 181.993 361.38 181.913C361.802 181.832 361.375 181.767 360.435 181.769C359.494 181.773 359.149 181.839 359.671 181.918ZM365.139 182.25C365.468 182.336 366.007 182.336 366.336 182.25C366.665 182.163 366.398 182.093 365.738 182.093C365.08 182.093 364.81 182.163 365.139 182.25ZM162.284 187.488C162.284 188.899 162.346 189.476 162.419 188.771C162.493 188.066 162.493 186.911 162.419 186.205C162.346 185.5 162.284 186.076 162.284 187.488ZM531.09 196.383C531.09 197.418 531.155 197.841 531.232 197.325C531.311 196.807 531.311 195.96 531.232 195.442C531.155 194.926 531.09 195.349 531.09 196.383ZM540.304 200.832C540.304 201.49 540.374 201.759 540.461 201.43C540.547 201.1 540.547 200.562 540.461 200.232C540.374 199.903 540.304 200.172 540.304 200.832ZM209.535 203.312L208.528 204.423L209.641 203.418C210.252 202.865 210.753 202.365 210.753 202.307C210.753 202.043 210.471 202.276 209.535 203.312ZM498.484 209.213C500.644 211.377 502.485 213.148 502.579 213.148C502.674 213.148 500.985 211.377 498.827 209.213C496.669 207.05 494.827 205.279 494.732 205.279C494.639 205.279 496.326 207.05 498.484 209.213ZM203.226 209.213C201.824 210.625 200.755 211.78 200.847 211.78C200.942 211.78 202.165 210.625 203.569 209.213C204.97 207.802 206.04 206.647 205.945 206.647C205.852 206.647 204.627 207.802 203.226 209.213ZM216.034 210.154L215.03 211.265L216.141 210.261C216.753 209.708 217.254 209.207 217.254 209.15C217.254 208.885 216.97 209.118 216.034 210.154ZM491.813 215.885C492.931 217.014 493.922 217.938 494.016 217.938C494.109 217.938 493.273 217.014 492.156 215.885C491.038 214.755 490.047 213.833 489.953 213.833C489.858 213.833 490.697 214.755 491.813 215.885ZM461.706 224.438C463.013 225.755 464.16 226.833 464.254 226.833C464.347 226.833 463.355 225.755 462.047 224.438C460.74 223.122 459.594 222.044 459.501 222.044C459.407 222.044 460.399 223.122 461.706 224.438ZM239.139 225.379L236.926 227.689L239.235 225.474C241.381 223.417 241.701 223.069 241.449 223.069C241.397 223.069 240.357 224.109 239.139 225.379ZM269.343 261.634C269.861 261.711 270.708 261.711 271.224 261.634C271.742 261.555 271.318 261.49 270.284 261.49C269.248 261.49 268.825 261.555 269.343 261.634ZM421.25 261.634C421.766 261.711 422.613 261.711 423.131 261.634C423.649 261.555 423.225 261.49 422.189 261.49C421.155 261.49 420.732 261.555 421.25 261.634ZM284.653 266.97C284.653 267.027 285.154 267.528 285.765 268.081L286.877 269.085L285.871 267.974C284.935 266.938 284.653 266.705 284.653 266.97ZM406.434 268.146L405.255 269.428L406.537 268.249C407.731 267.152 407.978 266.863 407.717 266.863C407.659 266.863 407.082 267.44 406.434 268.146ZM400.372 281.232C400.372 281.89 400.444 282.16 400.53 281.831C400.615 281.502 400.615 280.963 400.53 280.634C400.444 280.305 400.372 280.572 400.372 281.232ZM400.372 285.338C400.372 285.996 400.444 286.265 400.53 285.936C400.615 285.607 400.615 285.068 400.53 284.739C400.444 284.41 400.372 284.68 400.372 285.338ZM496.512 294.917C496.512 295.575 496.582 295.845 496.668 295.516C496.753 295.187 496.753 294.648 496.668 294.319C496.582 293.99 496.512 294.259 496.512 294.917ZM285.492 298.765L284.14 300.22L285.593 298.867C286.946 297.61 287.205 297.311 286.946 297.311C286.89 297.311 286.235 297.966 285.492 298.765ZM406.452 298.445C406.452 298.505 406.952 299.005 407.563 299.558L408.676 300.563L407.671 299.45C406.733 298.414 406.452 298.181 406.452 298.445ZM496.885 300.391C496.885 301.614 496.946 302.115 497.021 301.502C497.098 300.892 497.098 299.891 497.021 299.28C496.946 298.667 496.885 299.168 496.885 300.391ZM205.016 300.391C205.016 301.049 205.086 301.319 205.172 300.99C205.257 300.661 205.257 300.122 205.172 299.793C205.086 299.464 205.016 299.733 205.016 300.391ZM269.001 305.088C269.706 305.162 270.862 305.162 271.567 305.088C272.272 305.015 271.695 304.953 270.284 304.953C268.872 304.953 268.294 305.015 269.001 305.088ZM420.907 305.088C421.612 305.162 422.767 305.162 423.472 305.088C424.179 305.015 423.602 304.953 422.189 304.953C420.779 304.953 420.201 305.015 420.907 305.088ZM496.885 308.602C496.885 309.825 496.946 310.326 497.021 309.713C497.098 309.103 497.098 308.102 497.021 307.491C496.946 306.878 496.885 307.379 496.885 308.602ZM205.016 308.602C205.016 309.26 205.086 309.53 205.172 309.201C205.257 308.872 205.257 308.333 205.172 308.004C205.086 307.675 205.016 307.944 205.016 308.602ZM496.512 314.076C496.512 314.734 496.582 315.004 496.668 314.675C496.753 314.346 496.753 313.807 496.668 313.478C496.582 313.149 496.512 313.418 496.512 314.076ZM297.733 317.156C297.733 317.814 297.805 318.084 297.89 317.755C297.976 317.426 297.976 316.887 297.89 316.558C297.805 316.227 297.733 316.496 297.733 317.156ZM346.84 319.792C347.265 319.874 347.881 319.87 348.208 319.786C348.535 319.701 348.187 319.632 347.435 319.636C346.682 319.641 346.414 319.711 346.84 319.792ZM312.35 321.689C313.19 322.583 313.922 323.314 313.976 323.314C314.233 323.314 313.962 323.006 312.45 321.589L310.826 320.063L312.35 321.689ZM350.343 320.684C350.343 320.744 350.842 321.242 351.454 321.795L352.566 322.8L351.561 321.689C350.625 320.653 350.343 320.42 350.343 320.684ZM158.151 325.539C158.154 326.291 158.224 326.559 158.307 326.132C158.389 325.707 158.385 325.091 158.3 324.763C158.214 324.436 158.147 324.784 158.151 325.539ZM544.075 329.644C544.079 330.397 544.149 330.664 544.231 330.237C544.311 329.812 544.31 329.196 544.224 328.869C544.138 328.542 544.072 328.89 544.075 329.644ZM157.825 330.498C157.825 331.534 157.888 331.958 157.967 331.44C158.046 330.922 158.046 330.075 157.967 329.558C157.888 329.04 157.825 329.464 157.825 330.498ZM157.507 340.421C157.507 342.396 157.563 343.205 157.633 342.216C157.701 341.229 157.701 339.612 157.633 338.625C157.563 337.636 157.507 338.445 157.507 340.421ZM544.441 340.421C544.441 341.644 544.502 342.144 544.577 341.532C544.654 340.921 544.654 339.92 544.577 339.309C544.502 338.697 544.441 339.197 544.441 340.421ZM373.009 343.051C373.338 343.137 373.877 343.137 374.206 343.051C374.535 342.965 374.266 342.895 373.608 342.895C372.948 342.895 372.678 342.965 373.009 343.051ZM157.82 350.172C157.822 351.111 157.888 351.456 157.967 350.936C158.046 350.417 158.044 349.647 157.964 349.225C157.881 348.805 157.818 349.23 157.82 350.172ZM544.075 351.197C544.079 351.95 544.149 352.217 544.231 351.792C544.311 351.367 544.31 350.751 544.224 350.424C544.138 350.096 544.072 350.445 544.075 351.197ZM158.151 355.303C158.154 356.055 158.224 356.323 158.307 355.898C158.389 355.472 158.385 354.856 158.3 354.529C158.214 354.202 158.147 354.55 158.151 355.303ZM172.963 376.035C167.214 376.81 156.363 381.29 150.029 385.502C132.671 397.045 129.717 415.804 141.736 438.135V438.135C142.774 440.063 144.765 441.287 146.953 441.343L151.167 441.452C198.655 442.668 261.326 469.84 325.07 516.852C327.448 518.604 329.495 520.039 329.62 520.039C329.898 520.039 328.864 518.518 323.349 510.802C259.22 421.076 204.249 371.816 172.963 376.035ZM522.947 376.031C491.029 379.799 442.18 424.86 385.012 503.276C378.065 512.803 373.196 519.743 373.35 519.895C373.431 519.976 375.022 518.919 376.887 517.547C441.478 469.999 504.466 442.635 552.05 441.452L558.704 441.286C559.472 441.267 560.175 440.852 560.564 440.19V440.19C577.348 411.553 568.796 388.479 537.488 377.928C531.353 375.862 528.043 375.429 522.947 376.031ZM464.615 381.647C463.783 382.494 463.18 383.187 463.274 383.187C463.369 383.187 464.125 382.494 464.956 381.647C465.787 380.8 466.391 380.107 466.296 380.107C466.202 380.107 465.446 380.8 464.615 381.647ZM239.321 383.871C240.247 384.811 241.082 385.581 241.176 385.581C241.271 385.581 240.59 384.811 239.662 383.871C238.737 382.93 237.9 382.16 237.808 382.16C237.713 382.16 238.394 382.93 239.321 383.871ZM460.509 385.753C459.678 386.6 459.074 387.293 459.169 387.293C459.263 387.293 460.019 386.6 460.85 385.753C461.682 384.906 462.285 384.213 462.191 384.213C462.096 384.213 461.339 384.906 460.509 385.753ZM246.676 405.255C247.315 405.913 247.914 406.452 248.008 406.452C248.103 406.452 247.657 405.913 247.018 405.255C246.381 404.595 245.781 404.058 245.688 404.058C245.593 404.058 246.038 404.595 246.676 405.255ZM455.189 406.194L453.836 407.649L455.291 406.298C456.643 405.039 456.902 404.742 456.643 404.742C456.587 404.742 455.933 405.395 455.189 406.194ZM253.162 411.327C254.581 412.837 254.887 413.109 254.887 412.853C254.887 412.797 254.156 412.066 253.262 411.227L251.638 409.701L253.162 411.327ZM446.303 414.748L443.231 417.912L446.395 414.841C449.335 411.989 449.715 411.584 449.468 411.584C449.416 411.584 447.993 413.007 446.303 414.748ZM259.506 417.743C260.241 418.495 260.92 419.111 261.014 419.111C261.107 419.111 260.584 418.495 259.849 417.743C259.114 416.99 258.435 416.374 258.34 416.374C258.248 416.374 258.771 416.99 259.506 417.743ZM437.399 423.987L436.046 425.441L437.5 424.088C438.853 422.83 439.112 422.532 438.853 422.532C438.797 422.532 438.142 423.187 437.399 423.987ZM266.007 424.585C266.742 425.338 267.421 425.954 267.514 425.954C267.608 425.954 267.083 425.338 266.348 424.585C265.613 423.833 264.936 423.217 264.841 423.217C264.747 423.217 265.272 423.833 266.007 424.585ZM429.182 432.882L428.178 433.993L429.289 432.989C430.325 432.052 430.558 431.769 430.294 431.769C430.234 431.769 429.735 432.269 429.182 432.882ZM394.063 474.425C394.426 474.57 394.426 474.705 394.063 475.167C393.67 475.673 393.685 475.683 394.221 475.263C394.55 475.006 394.819 474.66 394.819 474.493C394.819 474.329 394.55 474.206 394.221 474.22C393.839 474.238 393.783 474.313 394.063 474.425ZM344.953 477.167C345.282 477.253 345.821 477.253 346.152 477.167C346.481 477.08 346.211 477.01 345.551 477.01C344.893 477.01 344.624 477.08 344.953 477.167ZM343.415 481.619C343.837 481.702 344.53 481.702 344.953 481.619C345.377 481.539 345.03 481.472 344.183 481.472C343.338 481.472 342.991 481.539 343.415 481.619ZM360.696 481.625C361.216 481.703 361.986 481.7 362.408 481.619C362.828 481.539 362.402 481.474 361.461 481.476C360.521 481.479 360.176 481.546 360.696 481.625ZM350.102 481.976C351.759 482.038 354.375 482.038 355.919 481.975C357.462 481.912 356.108 481.861 352.909 481.861C349.71 481.861 348.446 481.913 350.102 481.976Z" fill="white"/>
<path fill-rule="evenodd" clip-rule="evenodd" d="M0.169739 350C0.169739 542.595 0.209989 621.383 0.257239 525.086C0.304489 428.789 0.304489 271.212 0.257239 174.914C0.209989 78.617 0.169739 157.406 0.169739 350ZM348.561 159.003C350.124 159.066 352.586 159.066 354.035 159.003C355.486 158.939 354.209 158.886 351.197 158.888C348.187 158.888 347 158.94 348.561 159.003ZM337.944 159.332C338.369 159.415 338.985 159.411 339.313 159.325C339.64 159.24 339.292 159.173 338.539 159.177C337.787 159.182 337.519 159.252 337.944 159.332ZM362.92 159.332C363.345 159.415 363.961 159.411 364.289 159.325C364.614 159.24 364.266 159.173 363.513 159.177C362.761 159.182 362.493 159.252 362.92 159.332ZM371.64 160.011C371.969 160.097 372.508 160.097 372.837 160.011C373.166 159.926 372.897 159.854 372.239 159.854C371.579 159.854 371.31 159.926 371.64 160.011ZM548.174 162.855C548.174 163.513 548.244 163.783 548.329 163.454C548.415 163.125 548.415 162.586 548.329 162.255C548.244 161.926 548.174 162.195 548.174 162.855ZM181.244 164.465C181.667 164.546 182.36 164.546 182.784 164.465C183.207 164.383 182.861 164.316 182.014 164.316C181.167 164.316 180.82 164.383 181.244 164.465ZM186.205 164.469C186.721 164.546 187.568 164.546 188.086 164.469C188.604 164.39 188.181 164.325 187.145 164.325C186.111 164.325 185.687 164.39 186.205 164.469ZM548.188 173.803C548.188 174.65 548.254 174.997 548.335 174.573C548.417 174.15 548.417 173.457 548.335 173.033C548.254 172.61 548.188 172.956 548.188 173.803ZM525.856 180.752C525.856 180.812 526.356 181.312 526.967 181.864L528.08 182.87L527.074 181.757C526.138 180.721 525.856 180.488 525.856 180.752ZM342.559 181.575C343.075 181.654 343.922 181.654 344.44 181.575C344.958 181.496 344.535 181.431 343.499 181.431C342.464 181.431 342.041 181.496 342.559 181.575ZM357.612 181.575C358.13 181.654 358.977 181.654 359.494 181.575C360.012 181.496 359.588 181.431 358.554 181.431C357.518 181.431 357.094 181.496 357.612 181.575ZM171.859 187.488C171.859 188.711 171.922 189.212 171.997 188.599C172.074 187.989 172.074 186.988 171.997 186.375C171.922 185.764 171.859 186.265 171.859 187.488ZM207.487 205.021L206.134 206.476L207.588 205.123C208.939 203.866 209.198 203.569 208.941 203.569C208.885 203.569 208.231 204.222 207.487 205.021ZM490.445 214.858C491.941 216.363 493.243 217.595 493.337 217.595C493.432 217.595 492.284 216.363 490.788 214.858C489.29 213.353 487.989 212.121 487.895 212.121C487.8 212.121 488.948 213.353 490.445 214.858ZM210.068 216.055C208.666 217.467 207.597 218.622 207.69 218.622C207.784 218.622 209.009 217.467 210.411 216.055C211.813 214.645 212.882 213.49 212.788 213.49C212.695 213.49 211.47 214.645 210.068 216.055ZM493.694 218.045C493.694 218.104 494.195 218.603 494.807 219.156L495.918 220.161L494.914 219.049C493.978 218.013 493.694 217.781 493.694 218.045ZM462.732 225.122C463.659 226.063 464.494 226.833 464.588 226.833C464.683 226.833 464 226.063 463.075 225.122C462.147 224.182 461.312 223.412 461.218 223.412C461.125 223.412 461.806 224.182 462.732 225.122ZM497.243 303.471C497.243 305.447 497.299 306.254 497.369 305.267C497.438 304.278 497.438 302.663 497.369 301.674C497.299 300.687 497.243 301.495 497.243 303.471ZM544.068 333.578C544.068 334.236 544.138 334.506 544.224 334.177C544.309 333.848 544.309 333.309 544.224 332.98C544.138 332.651 544.068 332.918 544.068 333.578ZM157.864 340.421C157.864 343.901 157.915 345.326 157.978 343.585C158.039 341.845 158.039 338.996 157.978 337.255C157.915 335.515 157.864 336.94 157.864 340.421ZM544.068 347.263C544.068 347.921 544.138 348.191 544.224 347.862C544.309 347.533 544.309 346.994 544.224 346.665C544.138 346.336 544.068 346.605 544.068 347.263ZM461.694 384.983L459.995 386.78L461.792 385.081C462.779 384.148 463.587 383.339 463.587 383.285C463.587 383.03 463.271 383.313 461.694 384.983ZM248.045 406.28C248.684 406.94 249.282 407.479 249.377 407.479C249.471 407.479 249.025 406.94 248.386 406.28C247.749 405.622 247.149 405.083 247.056 405.083C246.962 405.083 247.406 405.622 248.045 406.28ZM264.638 422.874C265.373 423.626 266.052 424.242 266.145 424.242C266.24 424.242 265.715 423.626 264.98 422.874C264.245 422.121 263.567 421.505 263.473 421.505C263.378 421.505 263.903 422.121 264.638 422.874ZM344.44 427.564C344.864 427.644 345.557 427.644 345.98 427.564C346.404 427.481 346.057 427.415 345.21 427.415C344.363 427.415 344.017 427.481 344.44 427.564ZM356.419 427.564C356.844 427.646 357.46 427.642 357.787 427.557C358.115 427.471 357.766 427.404 357.014 427.408C356.261 427.411 355.994 427.481 356.419 427.564ZM345.128 481.962C345.555 482.045 346.169 482.041 346.496 481.955C346.824 481.87 346.475 481.803 345.723 481.807C344.97 481.81 344.703 481.88 345.128 481.962ZM359.497 481.962C359.924 482.045 360.54 482.041 360.868 481.955C361.193 481.87 360.845 481.803 360.092 481.807C359.34 481.81 359.072 481.88 359.497 481.962Z" fill="#7F9BAE"/>
<path fill-rule="evenodd" clip-rule="evenodd" d="M342.38 158.996C342.988 159.071 344.066 159.073 344.775 158.998C345.485 158.924 344.988 158.863 343.67 158.861C342.352 158.86 341.773 158.919 342.38 158.996ZM357.434 158.996C358.041 159.071 359.119 159.073 359.828 158.998C360.538 158.924 360.042 158.863 358.724 158.861C357.408 158.86 356.827 158.919 357.434 158.996ZM544.416 158.984C544.745 159.071 545.284 159.071 545.613 158.984C545.942 158.898 545.673 158.828 545.015 158.828C544.357 158.828 544.087 158.898 544.416 158.984ZM183.809 164.458C184.138 164.545 184.678 164.545 185.007 164.458C185.337 164.372 185.068 164.302 184.408 164.302C183.75 164.302 183.48 164.372 183.809 164.458ZM548.555 167.986C548.555 169.585 548.615 170.24 548.686 169.44C548.758 168.64 548.758 167.331 548.686 166.532C548.615 165.732 548.555 166.386 548.555 167.986ZM167.794 170.467L166.789 171.579L167.9 170.574C168.938 169.638 169.171 169.354 168.906 169.354C168.847 169.354 168.347 169.855 167.794 170.467ZM346.152 181.576C346.762 181.653 347.763 181.653 348.374 181.576C348.987 181.501 348.486 181.438 347.263 181.438C346.04 181.438 345.539 181.501 346.152 181.576ZM353.328 181.576C353.936 181.652 355.014 181.653 355.723 181.578C356.433 181.505 355.936 181.443 354.618 181.442C353.302 181.44 352.721 181.501 353.328 181.576ZM338.453 181.907C338.782 181.993 339.321 181.993 339.65 181.907C339.979 181.821 339.71 181.751 339.052 181.751C338.394 181.751 338.124 181.821 338.453 181.907ZM362.402 181.907C362.731 181.993 363.27 181.993 363.599 181.907C363.928 181.821 363.659 181.751 363.001 181.751C362.343 181.751 362.073 181.821 362.402 181.907ZM540.67 196.383C540.67 197.417 540.734 197.841 540.811 197.325C540.89 196.807 540.89 195.96 540.811 195.442C540.734 194.925 540.67 195.349 540.67 196.383ZM485.826 210.175C485.826 210.234 486.327 210.735 486.938 211.288L488.05 212.292L487.044 211.179C486.108 210.143 485.826 209.911 485.826 210.175ZM213.813 212.378L212.634 213.661L213.918 212.481C215.112 211.384 215.359 211.095 215.096 211.095C215.04 211.095 214.463 211.673 213.813 212.378ZM206.118 220.076L204.766 221.529L206.22 220.178C207.571 218.92 207.83 218.622 207.573 218.622C207.517 218.622 206.862 219.277 206.118 220.076ZM495.747 220.097C495.747 220.157 496.248 220.656 496.86 221.209L497.971 222.213L496.967 221.102C496.03 220.066 495.747 219.833 495.747 220.097ZM291.931 283.285C291.931 284.132 291.998 284.478 292.078 284.055C292.161 283.631 292.161 282.938 292.078 282.515C291.998 282.091 291.931 282.438 291.931 283.285ZM400.372 283.285C400.372 283.943 400.444 284.212 400.529 283.883C400.615 283.554 400.615 283.015 400.529 282.686C400.444 282.357 400.372 282.625 400.372 283.285ZM400.036 320.812C400.367 320.899 400.904 320.899 401.235 320.812C401.564 320.726 401.294 320.656 400.636 320.656C399.976 320.656 399.707 320.726 400.036 320.812ZM400.451 332.636L398.753 334.434L400.551 332.734C401.538 331.802 402.346 330.993 402.346 330.939C402.346 330.683 402.029 330.967 400.451 332.636ZM157.801 333.235C157.801 333.895 157.873 334.164 157.959 333.833C158.044 333.504 158.044 332.965 157.959 332.636C157.873 332.307 157.801 332.577 157.801 333.235ZM375.746 333.48C376.262 333.559 377.109 333.559 377.627 333.48C378.145 333.403 377.722 333.338 376.686 333.338C375.651 333.338 375.228 333.403 375.746 333.48ZM375.746 343.065C376.451 343.138 377.606 343.138 378.311 343.065C379.017 342.991 378.439 342.93 377.029 342.93C375.617 342.93 375.039 342.991 375.746 343.065ZM157.801 347.604C157.801 348.264 157.873 348.533 157.959 348.204C158.044 347.874 158.044 347.336 157.959 347.006C157.873 346.677 157.801 346.946 157.801 347.604ZM174.914 366.331C175.808 366.403 177.271 366.403 178.164 366.331C179.058 366.261 178.327 366.203 176.54 366.203C174.751 366.203 174.02 366.261 174.914 366.331ZM525.096 366.333C526.092 366.403 527.63 366.401 528.518 366.331C529.407 366.261 528.593 366.205 526.711 366.205C524.828 366.207 524.102 366.263 525.096 366.333ZM236.241 380.791C236.976 381.544 237.655 382.16 237.748 382.16C237.843 382.16 237.319 381.544 236.584 380.791C235.849 380.039 235.17 379.423 235.076 379.423C234.981 379.423 235.506 380.039 236.241 380.791ZM250.441 408.676C251.078 409.334 251.678 409.873 251.771 409.873C251.865 409.873 251.421 409.334 250.782 408.676C250.143 408.016 249.545 407.479 249.45 407.479C249.356 407.479 249.802 408.016 250.441 408.676ZM451.432 409.615L449.39 411.754L451.528 409.712C452.704 408.59 453.667 407.627 453.667 407.575C453.667 407.321 453.329 407.629 451.432 409.615ZM256.427 414.662C257.353 415.604 258.19 416.374 258.282 416.374C258.377 416.374 257.696 415.604 256.769 414.662C255.843 413.723 255.008 412.953 254.914 412.953C254.819 412.953 255.5 413.723 256.427 414.662ZM441.845 419.197L440.494 420.649L441.949 419.298C443.3 418.04 443.558 417.742 443.299 417.742C443.243 417.742 442.591 418.397 441.845 419.197ZM262.073 420.308C262.71 420.966 263.31 421.505 263.405 421.505C263.497 421.505 263.053 420.966 262.414 420.308C261.776 419.65 261.177 419.111 261.083 419.111C260.988 419.111 261.434 419.65 262.073 420.308ZM434.998 426.38L433.993 427.493L435.104 426.487C436.142 425.551 436.375 425.269 436.11 425.269C436.051 425.269 435.551 425.77 434.998 426.38ZM348.701 427.576C349.963 427.64 352.119 427.64 353.491 427.576C354.865 427.511 353.833 427.457 351.197 427.457C348.563 427.457 347.44 427.509 348.701 427.576ZM348.889 477.185C350.252 477.249 352.485 477.249 353.848 477.185C355.213 477.12 354.097 477.066 351.368 477.066C348.64 477.066 347.524 477.12 348.889 477.185Z" fill="#6086A4"/>
</svg>
